<svg width="87" height="96" viewBox="0 0 87 96" fill="none" xmlns="http://www.w3.org/2000/svg">
<path d="M39.9736 5.26397C39.6241 4.93634 39.2746 4.69607 38.947 4.52134C38.6194 4.36844 38.2481 4.28107 37.8331 4.28107C37.3525 4.28107 37.003 4.39028 36.7628 4.58686C36.5225 4.78344 36.3915 5.11108 36.3915 5.54792C36.3915 5.85371 36.5225 6.13766 36.7846 6.33424C37.0467 6.55266 37.3525 6.74924 37.7457 6.94582C38.1388 7.1424 38.5538 7.33898 38.9907 7.5574C39.4275 7.77582 39.8425 8.01609 40.2357 8.32188C40.6289 8.62767 40.9346 8.97715 41.1968 9.41399C41.4589 9.85083 41.5899 10.375 41.5899 10.9866C41.5899 11.9258 41.3278 12.734 40.8254 13.4111C40.3231 14.0882 39.5367 14.5251 38.532 14.7653V16.8185H36.6317V14.8527C36.0638 14.7872 35.4523 14.6343 34.8188 14.3722C34.1854 14.1101 33.6394 13.7824 33.1807 13.3674L34.4475 11.4235C34.9499 11.7948 35.4304 12.0787 35.8673 12.2753C36.3259 12.4719 36.7846 12.5593 37.2433 12.5593C37.7894 12.5593 38.2044 12.4501 38.4446 12.2316C38.7067 12.0132 38.8378 11.6637 38.8378 11.2051C38.8378 10.8556 38.7067 10.5716 38.4446 10.3314C38.1825 10.0911 37.8767 9.87268 37.4836 9.65425C37.0904 9.43583 36.6754 9.21741 36.2386 8.99899C35.8017 8.78057 35.3867 8.51846 34.9936 8.21267C34.6004 7.90688 34.2946 7.5574 34.0325 7.1424C33.7704 6.7274 33.6394 6.24687 33.6394 5.65713C33.6394 4.69607 33.9015 3.88791 34.4257 3.25449C34.9499 2.62106 35.6925 2.20606 36.6099 2.03132V0H38.5102V1.98764C39.1436 2.07501 39.6896 2.27159 40.1702 2.55554C40.6507 2.83949 41.0657 3.18896 41.4589 3.60396L39.9736 5.26397Z" fill="#333B41"/>
<path fill-rule="evenodd" clip-rule="evenodd" d="M87 76.0006L83.4063 73.7891L75.3895 88.164L79.2597 90.0991L87 76.0006Z" fill="#333B41"/>
<path fill-rule="evenodd" clip-rule="evenodd" d="M81.4707 73.2357C72.0717 62.4546 63.7785 65.219 52.7209 72.4064C43.0454 78.7646 35.858 74.3415 28.6705 77.3824C27.0119 78.2117 24.5239 80.1468 26.7354 82.0819C27.8412 82.9112 32.2642 83.7405 33.6464 83.4641C41.1103 81.8054 43.3219 85.1227 54.6559 82.9112C51.3387 85.3991 40.5575 83.7405 33.9229 84.5698C28.6705 85.6756 20.1008 81.529 27.0119 76.8295C23.971 75.4473 21.2066 74.6179 17.8893 74.3415C14.572 71.8535 9.31965 68.8127 6.55525 67.7069C4.34372 66.3247 -1.1851 66.8776 2.40863 70.4713C6.00236 73.7886 15.6778 81.2525 17.6129 82.3583C25.3532 87.0578 32.5407 90.3751 40.0046 94.5217C40.0046 94.5217 42.4926 95.9039 47.4685 93.9688C51.0622 92.3102 67.0958 83.4641 70.966 84.8463C73.1775 85.6756 74.2832 86.2285 74.2832 86.2285L81.4707 73.2357Z" stroke="#333B41" stroke-width="1.5"/>
<path fill-rule="evenodd" clip-rule="evenodd" d="M34.753 72.406C35.3059 71.3003 35.8588 70.471 36.6881 70.1945C37.5175 69.9181 37.7939 70.471 38.3468 71.0238C38.8997 71.8532 39.1761 72.1296 40.0054 72.6825C40.2819 72.9589 40.8347 72.9589 41.1112 72.9589L40.5583 72.6825C39.729 72.1296 39.1761 71.5767 39.4525 70.471C39.4525 70.1945 39.1761 69.6416 39.729 69.6416C40.2819 69.9181 41.1112 70.471 41.9405 70.471C41.9405 70.471 42.7698 70.7474 42.4934 70.471C42.4934 70.1945 41.9405 69.9181 41.6641 69.6416C40.0054 68.2594 40.0054 67.983 40.0054 66.0479C40.2819 63.2835 39.1761 61.072 37.241 59.1369C32.818 54.7138 34.753 48.6321 38.0703 42.8269C41.1112 37.5745 43.8756 36.7452 40.8347 30.387C39.729 27.6226 37.7939 24.8582 37.5175 23.1996C37.5175 22.6467 37.5175 22.9231 37.5175 23.1996C37.241 24.8582 38.3468 27.3462 39.4525 29.8342C41.9405 35.363 41.3876 35.9159 37.7939 40.8918C33.9237 45.8677 31.1593 51.1201 32.818 56.6489C33.9237 60.5191 39.4525 64.3893 36.6881 66.8772C35.3059 67.983 33.3708 70.7474 33.0944 72.406C32.818 73.2354 32.818 73.2354 32.5415 73.7882C32.2651 74.0647 32.5415 74.0647 32.818 74.0647C34.2002 73.7882 34.2002 73.2354 34.753 72.406Z" fill="#333B41"/>
<path d="M53.0677 46.529L53.9799 46.2684L54.023 47.2161C54.1708 50.4683 52.7782 54.3664 50.489 57.4425C49.3021 59.0375 47.8403 60.4545 46.1795 61.4487C47.2727 61.074 48.4757 60.3838 49.6928 59.1695C52.9275 55.6792 53.8194 51.2419 54.8556 45.5536C53.89 45.6402 52.9387 45.8564 51.9619 46.1392C51.3209 46.3247 50.677 46.5364 50.0108 46.757C49.9705 46.7704 49.9301 46.7838 49.8896 46.7972C49.2722 47.0018 48.6355 47.2127 47.9828 47.4089C42.8542 49.3021 40.0786 51.6595 39.0703 54.3645C38.8199 55.654 38.8549 56.8192 39.2932 57.696L39.33 57.7696L39.35 57.8495C39.5233 58.5427 40.2249 59.1847 41.1661 59.7019C42.2173 58.713 42.9502 57.8296 43.6708 56.9124C43.4955 57.0928 43.3317 57.265 43.1767 57.428C43.051 57.5602 42.931 57.6863 42.8155 57.8057C42.6192 58.0085 42.4291 58.1985 42.2543 58.3497C42.097 58.4858 41.8773 58.6584 41.624 58.7429L41.435 58.8059L41.2397 58.7668C40.345 58.5879 39.6724 58.0935 39.3967 57.2664C39.1497 56.5252 39.2725 55.6546 39.5606 54.7804C40.0548 52.8473 41.5706 51.3363 43.8137 50.0545C46.0716 48.7643 49.1834 47.6388 53.0677 46.529Z" stroke="#333B41" stroke-width="1.5"/>
<path d="M26.3594 28.3643C24.8831 27.8492 23.5972 27.4005 22.1585 27.1376C22.2078 27.3788 22.2563 27.6174 22.3042 27.8534C22.4347 28.4962 22.5613 29.1198 22.6905 29.7246C22.6546 29.2771 22.647 28.8382 22.6694 28.4123L22.7192 27.4666L23.6284 27.7318C26.9609 28.7037 29.6536 29.6903 31.6306 30.8047C33.3946 31.7989 34.6823 32.9473 35.2881 34.3665C34.4482 32.1059 32.2371 30.1686 27.9062 28.8948L27.8934 28.8911L27.8807 28.8868C27.3452 28.7083 26.8421 28.5328 26.3594 28.3643ZM25.6845 37.3306C25.0998 36.544 24.5847 35.692 24.1529 34.809C24.7587 36.2532 25.5579 37.5474 26.7131 38.7026L26.7229 38.7124L26.7324 38.7226C27.3687 39.4079 28.0078 39.8995 28.6249 40.2466C27.5044 39.4579 26.5134 38.4458 25.6845 37.3306ZM35.4638 37.5153C35.8983 36.6464 35.9108 35.8128 35.5013 34.9459C35.7844 35.7323 35.7964 36.5125 35.5109 37.1786C35.2048 37.893 34.5924 38.3874 33.8286 38.5784L33.6167 38.6313L33.4095 38.5623C33.325 38.5341 33.2441 38.4969 33.168 38.4549C33.3421 38.6533 33.5254 38.8554 33.7215 39.0632L33.7412 39.0582C34.7002 38.8185 35.2236 38.4027 35.407 37.6688L35.427 37.589L35.4638 37.5153Z" stroke="#333B41" stroke-width="1.5"/>
<path d="M50.7817 28.6732C50.4562 29.0618 50.1084 29.4321 49.7404 29.7769C49.9069 29.6372 50.0745 29.4842 50.2426 29.3168C50.4332 29.1065 50.6125 28.892 50.7817 28.6732ZM53.9904 19.4627C53.9931 19.448 53.9958 19.4334 53.9985 19.4187C52.4669 19.7171 50.8898 20.1954 49.1138 20.8614L49.1138 20.8615L49.1027 20.8654C45.6254 22.1073 43.7148 23.5076 42.8639 25.3816C43.4433 24.192 44.4856 23.2206 45.9543 22.3769C47.6626 21.3955 50.0171 20.5463 53.0761 19.712L53.9904 19.4627ZM43.9138 29.1639C43.613 29.0636 43.3531 28.9102 43.14 28.7121C43.3282 29.0573 43.5877 29.3412 43.9505 29.5207C44.0559 29.4111 44.1572 29.3035 44.2551 29.1976C44.2211 29.2007 44.1863 29.2024 44.1509 29.2024H44.0292L43.9138 29.1639Z" stroke="#333B41" stroke-width="1.5"/>
</svg>
