<svg width="89" height="29" viewBox="0 0 89 29" fill="none" xmlns="http://www.w3.org/2000/svg">
<path d="M0.323892 16.6526C0.731841 17.373 5.57644 15.1327 13.4223 12.1063C17.9665 10.3454 22.6294 8.90798 27.3763 7.80469C33.0831 6.49003 38.9468 5.98697 44.7941 6.31041C50.5842 6.67809 56.2579 8.10304 61.5346 10.5147C65.956 12.4875 70.1853 14.8655 74.1682 17.6183C77.0224 19.6033 79.325 21.4162 81.0947 22.821C80.1982 22.8264 79.3196 22.8395 78.4811 22.8668C76.3112 22.9372 74.3545 23.0784 72.7086 23.2784C69.4167 23.6785 67.3677 24.3142 67.342 25.0904C67.3162 25.8666 69.3186 26.6365 72.5768 27.2538C74.2058 27.5624 76.1489 27.8329 78.3094 28.0469C79.3896 28.1539 80.5242 28.2468 81.701 28.3233C82.2897 28.3568 82.8882 28.3908 83.4966 28.4254L84.4153 28.4668C84.6071 28.4709 84.6183 28.4837 85.047 28.4816C85.348 28.4757 85.6472 28.4335 85.9381 28.356C86.4398 28.2229 86.9028 27.9726 87.2889 27.6257C87.6751 27.2788 87.9734 26.8452 88.1593 26.3606C88.2792 26.0503 88.3556 25.725 88.3865 25.3938C88.4053 25.1976 88.4113 25.0004 88.4043 24.8035L88.3884 24.495C88.3643 24.1123 88.3251 23.7405 88.2749 23.381C88.1762 22.7054 88.042 22.0355 87.873 21.374C87.5536 20.1273 87.223 19.0882 86.8958 18.0415C86.2378 15.9725 85.5697 14.128 84.9295 12.5985C83.6491 9.53957 82.4802 7.74071 81.7262 7.92712C80.9723 8.11353 80.776 10.2497 81.0682 13.553C81.2144 15.2046 81.4826 17.1479 81.8642 19.2852C81.9062 19.5043 81.9503 19.7345 81.9931 19.958C80.3399 18.0026 78.5432 16.1732 76.618 14.4849C72.7111 11.0697 68.3883 8.16187 63.7525 5.8303C57.9754 2.85396 51.6446 1.10624 45.1587 0.697253C38.7402 0.329816 32.3052 1.03266 26.1173 2.777C21.1567 4.17363 16.3555 6.08444 11.7919 8.47837C4.07806 12.5681 -0.0393345 16.029 0.323892 16.6526Z" fill="#468E0D"/>
</svg>
