<svg width="111" height="26" viewBox="0 0 111 26" fill="none" xmlns="http://www.w3.org/2000/svg">
<path fill-rule="evenodd" clip-rule="evenodd" d="M17 7.75008H15.4C14.2983 7.75008 14.3334 8.14316 14.3334 8.8619V9.99991H17L16.4666 13H14.3334V21H10.6V13H9V9.99991H10.6V8.58692C10.6 6.33782 11.7974 5 14.6268 5H17V7.75008Z" fill="white"/>
<circle cx="13" cy="13" r="13" fill="#C4C4C4" fill-opacity="0.5"/>
<path d="M45.5938 13.9766H40.8203V19H39.3203V7.625H46.3672V8.85938H40.8203V12.75H45.5938V13.9766ZM52.8906 19C52.8073 18.8333 52.7396 18.5365 52.6875 18.1094C52.0156 18.8073 51.2135 19.1562 50.2812 19.1562C49.4479 19.1562 48.763 18.9219 48.2266 18.4531C47.6953 17.9792 47.4297 17.3802 47.4297 16.6562C47.4297 15.776 47.763 15.0938 48.4297 14.6094C49.1016 14.1198 50.0443 13.875 51.2578 13.875H52.6641V13.2109C52.6641 12.7057 52.513 12.3047 52.2109 12.0078C51.9089 11.7057 51.4635 11.5547 50.875 11.5547C50.3594 11.5547 49.9271 11.6849 49.5781 11.9453C49.2292 12.2057 49.0547 12.5208 49.0547 12.8906H47.6016C47.6016 12.4688 47.75 12.0625 48.0469 11.6719C48.349 11.276 48.7552 10.9635 49.2656 10.7344C49.7812 10.5052 50.3464 10.3906 50.9609 10.3906C51.9349 10.3906 52.6979 10.6354 53.25 11.125C53.8021 11.6094 54.0885 12.2786 54.1094 13.1328V17.0234C54.1094 17.7995 54.2083 18.4167 54.4062 18.875V19H52.8906ZM50.4922 17.8984C50.9453 17.8984 51.375 17.7812 51.7812 17.5469C52.1875 17.3125 52.4818 17.0078 52.6641 16.6328V14.8984H51.5312C49.7604 14.8984 48.875 15.4167 48.875 16.4531C48.875 16.9062 49.026 17.2604 49.3281 17.5156C49.6302 17.7708 50.0182 17.8984 50.4922 17.8984ZM59.7656 17.9766C60.2812 17.9766 60.7318 17.8203 61.1172 17.5078C61.5026 17.1953 61.7161 16.8047 61.7578 16.3359H63.125C63.099 16.8203 62.9323 17.2812 62.625 17.7188C62.3177 18.1562 61.9062 18.5052 61.3906 18.7656C60.8802 19.026 60.3385 19.1562 59.7656 19.1562C58.6146 19.1562 57.6979 18.7734 57.0156 18.0078C56.3385 17.237 56 16.1849 56 14.8516V14.6094C56 13.7865 56.151 13.0547 56.4531 12.4141C56.7552 11.7734 57.1875 11.276 57.75 10.9219C58.3177 10.5677 58.987 10.3906 59.7578 10.3906C60.7057 10.3906 61.4922 10.6745 62.1172 11.2422C62.7474 11.8099 63.0833 12.5469 63.125 13.4531H61.7578C61.7161 12.9062 61.5078 12.4583 61.1328 12.1094C60.763 11.7552 60.3047 11.5781 59.7578 11.5781C59.0234 11.5781 58.4531 11.8438 58.0469 12.375C57.6458 12.901 57.4453 13.6641 57.4453 14.6641V14.9375C57.4453 15.9115 57.6458 16.6615 58.0469 17.1875C58.4479 17.7135 59.0208 17.9766 59.7656 17.9766ZM68.2578 19.1562C67.112 19.1562 66.1797 18.7812 65.4609 18.0312C64.7422 17.276 64.3828 16.2682 64.3828 15.0078V14.7422C64.3828 13.9036 64.5417 13.1562 64.8594 12.5C65.1823 11.8385 65.6302 11.3229 66.2031 10.9531C66.7812 10.5781 67.4062 10.3906 68.0781 10.3906C69.1771 10.3906 70.0312 10.7526 70.6406 11.4766C71.25 12.2005 71.5547 13.237 71.5547 14.5859V15.1875H65.8281C65.849 16.0208 66.0911 16.6953 66.5547 17.2109C67.0234 17.7214 67.6172 17.9766 68.3359 17.9766C68.8464 17.9766 69.2786 17.8724 69.6328 17.6641C69.987 17.4557 70.2969 17.1797 70.5625 16.8359L71.4453 17.5234C70.737 18.612 69.6745 19.1562 68.2578 19.1562ZM68.0781 11.5781C67.4948 11.5781 67.0052 11.7917 66.6094 12.2188C66.2135 12.6406 65.9688 13.2344 65.875 14H70.1094V13.8906C70.0677 13.1562 69.8698 12.5885 69.5156 12.1875C69.1615 11.7812 68.6823 11.5781 68.0781 11.5781ZM80.3906 14.8672C80.3906 16.1589 80.0938 17.1979 79.5 17.9844C78.9062 18.7656 78.1094 19.1562 77.1094 19.1562C76.0417 19.1562 75.2161 18.7786 74.6328 18.0234L74.5625 19H73.2344V7H74.6797V11.4766C75.263 10.7526 76.0677 10.3906 77.0938 10.3906C78.1198 10.3906 78.9245 10.7786 79.5078 11.5547C80.0964 12.3307 80.3906 13.3932 80.3906 14.7422V14.8672ZM78.9453 14.7031C78.9453 13.7188 78.7552 12.9583 78.375 12.4219C77.9948 11.8854 77.4479 11.6172 76.7344 11.6172C75.7812 11.6172 75.0964 12.0599 74.6797 12.9453V16.6016C75.1224 17.487 75.8125 17.9297 76.75 17.9297C77.4427 17.9297 77.9818 17.6615 78.3672 17.125C78.7526 16.5885 78.9453 15.7812 78.9453 14.7031ZM81.8359 14.6953C81.8359 13.8672 81.9974 13.1224 82.3203 12.4609C82.6484 11.7995 83.1016 11.2891 83.6797 10.9297C84.263 10.5703 84.9271 10.3906 85.6719 10.3906C86.8229 10.3906 87.7526 10.7891 88.4609 11.5859C89.1745 12.3828 89.5312 13.4427 89.5312 14.7656V14.8672C89.5312 15.6901 89.3724 16.4297 89.0547 17.0859C88.7422 17.737 88.2917 18.2448 87.7031 18.6094C87.1198 18.974 86.4479 19.1562 85.6875 19.1562C84.5417 19.1562 83.612 18.7578 82.8984 17.9609C82.1901 17.1641 81.8359 16.1094 81.8359 14.7969V14.6953ZM83.2891 14.8672C83.2891 15.8047 83.5052 16.5573 83.9375 17.125C84.375 17.6927 84.9583 17.9766 85.6875 17.9766C86.4219 17.9766 87.0052 17.6901 87.4375 17.1172C87.8698 16.5391 88.0859 15.7318 88.0859 14.6953C88.0859 13.7682 87.8646 13.0182 87.4219 12.4453C86.9844 11.8672 86.401 11.5781 85.6719 11.5781C84.9583 11.5781 84.3828 11.862 83.9453 12.4297C83.5078 12.9974 83.2891 13.8099 83.2891 14.8672ZM90.9609 14.6953C90.9609 13.8672 91.1224 13.1224 91.4453 12.4609C91.7734 11.7995 92.2266 11.2891 92.8047 10.9297C93.388 10.5703 94.0521 10.3906 94.7969 10.3906C95.9479 10.3906 96.8776 10.7891 97.5859 11.5859C98.2995 12.3828 98.6562 13.4427 98.6562 14.7656V14.8672C98.6562 15.6901 98.4974 16.4297 98.1797 17.0859C97.8672 17.737 97.4167 18.2448 96.8281 18.6094C96.2448 18.974 95.5729 19.1562 94.8125 19.1562C93.6667 19.1562 92.737 18.7578 92.0234 17.9609C91.3151 17.1641 90.9609 16.1094 90.9609 14.7969V14.6953ZM92.4141 14.8672C92.4141 15.8047 92.6302 16.5573 93.0625 17.125C93.5 17.6927 94.0833 17.9766 94.8125 17.9766C95.5469 17.9766 96.1302 17.6901 96.5625 17.1172C96.9948 16.5391 97.2109 15.7318 97.2109 14.6953C97.2109 13.7682 96.9896 13.0182 96.5469 12.4453C96.1094 11.8672 95.526 11.5781 94.7969 11.5781C94.0833 11.5781 93.5078 11.862 93.0703 12.4297C92.6328 12.9974 92.4141 13.8099 92.4141 14.8672ZM102.828 15.0859L101.922 16.0312V19H100.477V7H101.922V14.2578L102.695 13.3281L105.328 10.5469H107.086L103.797 14.0781L107.469 19H105.773L102.828 15.0859Z" fill="white"/>
</svg>
