<svg width="48" height="39" viewBox="0 0 48 39" fill="none" xmlns="http://www.w3.org/2000/svg">
<path fill-rule="evenodd" clip-rule="evenodd" d="M12.1024 8.98763C12.007 9.07187 11.9117 9.15603 11.8185 9.24233C11.6029 9.43749 11.3909 9.63575 11.1825 9.83643C9.38673 11.5657 7.78774 13.5437 6.6388 15.7566C5.48834 17.9723 4.80473 20.4212 4.86857 22.8281C4.89742 23.9138 5.08235 25.0666 5.71905 26.0344C5.82872 26.2012 5.95174 26.3607 6.08746 26.5105L8.36464 29.0667L8.38678 29.0916C8.64858 29.3855 8.96124 29.6409 9.32367 29.8383C9.86832 30.1349 10.5143 30.2899 11.1989 30.2324C11.7923 30.1825 12.3503 29.9796 12.8455 29.7117C13.3384 29.4451 13.7667 29.1174 14.153 28.787C14.9248 28.127 15.5508 27.46 16.2157 27.028C17.4032 26.2563 18.9418 26.0344 20.4924 25.9976C22.0522 25.9606 23.7258 26.0837 25.4829 25.6704C27.621 25.1675 29.6032 23.8826 31.0106 22.1526C32.4163 20.4246 33.2195 18.3012 33.3175 16.2136C33.4205 14.02 32.7454 11.8979 31.4229 10.2758C31.347 10.1826 31.2683 10.0918 31.1881 10.0023L28.8889 7.42128C27.5758 5.94226 25.7291 4.95535 23.68 4.65156C21.419 4.31637 19.0301 4.81379 16.8853 5.80006C15.1302 6.60705 13.5391 7.72571 12.1036 8.98791L12.1024 8.98763ZM13.1015 10.039C13.2029 9.9494 13.3064 9.86201 13.4094 9.77453C14.6485 8.72736 15.9849 7.8224 17.4115 7.16641C19.3084 6.29421 21.3912 5.87562 23.2886 6.1569C25.0997 6.4254 26.7522 7.34853 27.8593 8.70642C28.9665 10.0644 29.5422 11.8732 29.4559 13.7117C29.3738 15.4604 28.6898 17.2579 27.5278 18.6862C26.3675 20.1125 24.7063 21.1847 22.9668 21.5939C21.5246 21.9331 19.9648 21.8388 18.3093 21.878C16.6447 21.9175 14.7816 22.1269 13.1489 23.1879C12.2335 23.7828 11.5602 24.5212 10.8968 25.0886C10.5655 25.3718 10.2353 25.6182 9.90217 25.7984C9.57129 25.9774 9.23105 26.092 8.92065 26.1181C8.56527 26.1479 8.18973 26.0647 7.86883 25.8899C7.54531 25.7137 7.26245 25.4412 7.04641 25.1128C6.61192 24.4524 6.44163 23.5637 6.41667 22.6231C6.36088 20.5213 6.96316 18.329 8.003 16.3263C9.04427 14.3208 10.5172 12.4884 12.203 10.8651C12.4964 10.5826 12.7958 10.3067 13.1015 10.0391L13.1015 10.039ZM14.015 11.0754C13.7303 11.323 13.4515 11.5814 13.1765 11.8464C11.5957 13.3687 10.2429 15.0624 9.30423 16.8702C8.36992 18.6697 7.84517 20.6174 7.89322 22.4282C7.9145 23.2306 8.07096 23.8673 8.3126 24.2345C8.42989 24.4129 8.57284 24.5386 8.68817 24.6014C8.7958 24.66 8.91341 24.675 8.95477 24.6715C8.99586 24.668 9.1285 24.6375 9.30237 24.5435C9.48293 24.4458 9.71956 24.2773 9.99852 24.0387C10.5587 23.5597 11.2768 22.7532 12.4311 22.0031C14.4883 20.6662 16.6608 20.4686 18.4343 20.4266C20.181 20.3852 21.6323 20.4522 22.7742 20.1836C24.1336 19.8638 25.489 18.9942 26.4137 17.8576C27.3432 16.7149 27.9135 15.2281 27.9805 13.8025C28.0509 12.3028 27.5697 10.7926 26.6678 9.6864C25.7663 8.58064 24.3881 7.81122 22.9156 7.59289C21.3648 7.36301 19.5739 7.70641 17.9135 8.46987C16.6568 9.04773 15.447 9.86075 14.3003 10.8301C14.2046 10.9107 14.1096 10.9926 14.015 11.0754L14.015 11.0754ZM20.7828 13.0188C21.3287 12.5367 21.9803 12.2182 22.5945 12.1335C23.2086 12.0487 23.7349 12.2046 24.0576 12.5668C24.3803 12.929 24.4729 13.4679 24.3152 14.065C24.1574 14.662 23.7621 15.2683 23.2163 15.7504C22.946 15.9891 22.6469 16.1902 22.3361 16.3421C22.0252 16.494 21.7087 16.5938 21.4046 16.6358C21.1005 16.6778 20.8148 16.6611 20.5637 16.5868C20.3127 16.5124 20.1012 16.3818 19.9414 16.2025C19.7816 16.0231 19.6767 15.7985 19.6325 15.5414C19.5883 15.2843 19.6057 14.9999 19.6839 14.7042C19.762 14.4086 19.8993 14.1076 20.0878 13.8184C20.2764 13.5292 20.5126 13.2575 20.7828 13.0188Z" fill="#EE8383"/>
<path d="M43.0599 12.6643C40.626 14.7946 40.3332 18.9017 40.3332 18.9017C17.3124 14.1778 12.6892 31.507 12.6892 31.507C12.6892 31.507 27.8864 41.1244 41.5921 22.1098C41.5921 22.1098 44.6036 24.9317 47.8434 24.854C47.8434 24.854 45.0251 22.6969 43.7411 19.4247C42.4575 16.1528 43.0599 12.6643 43.0599 12.6643ZM18.4783 29.0471C17.9387 29.2571 17.3125 28.9456 17.0794 28.3518C16.8464 27.7579 17.0948 27.1066 17.6344 26.8966C18.174 26.6866 18.8001 26.9977 19.0331 27.5916C19.2662 28.1855 19.0179 28.8372 18.4783 29.0471ZM23.6782 31.7048C23.6517 31.8369 23.5657 31.9339 23.4565 31.9764C23.3865 32.0037 23.3058 32.008 23.2247 31.9828C23.0195 31.9205 22.8889 31.694 22.9335 31.4778C23.7375 27.5875 20.8212 25.7965 20.6973 25.722C20.5081 25.6094 20.4294 25.3599 20.5217 25.1648C20.6131 24.9696 20.8401 24.9016 21.0297 25.0132C21.0657 25.0348 24.6123 27.1863 23.6782 31.7048Z" fill="#7A7871"/>
<path fill-rule="evenodd" clip-rule="evenodd" d="M35.3976 33.6248C34.937 31.9806 33.5633 30.0496 32.4933 27.9642C33.4105 29.7517 34.3276 31.5393 35.3976 33.6248ZM37.9817 33.4368C36.4552 31.2079 35.536 28.67 34.6168 26.132C33.8546 25.3928 33.2473 25.7019 32.64 26.0109C31.5783 26.927 30.5145 27.0927 31.7332 27.9753C33.2597 30.2042 34.3297 32.2897 35.096 34.5297C35.3997 34.3751 36.007 34.0661 36.3106 33.9115C36.9179 33.6025 37.0687 33.15 37.9817 33.4368ZM31.4233 25.8787C30.9627 24.2345 29.589 22.3036 28.519 20.2181C29.4362 22.0056 30.3533 23.7932 31.4233 25.8787ZM27.2962 17.8347C26.9884 16.4884 25.4619 14.2595 24.5447 12.472C25.4619 14.2595 26.2262 15.7492 27.449 18.1326C27.449 18.1326 27.449 18.1326 27.2962 17.8347ZM29.8803 17.6467C28.5066 15.7158 27.5874 13.1778 26.5154 10.3419C25.906 9.90062 25.2987 10.2097 24.6914 10.5188C23.6297 11.4348 22.5659 11.6005 23.7846 12.4831C25.1582 14.4141 26.3811 16.7975 27.1475 19.0375C27.4511 18.883 28.0584 18.5739 28.362 18.4194C28.8165 17.8124 29.1201 17.6578 29.8803 17.6467ZM23.3219 10.0886C23.0141 8.74233 21.4876 6.51346 20.5705 4.7259C21.4876 6.51346 22.2519 8.00309 23.4747 10.3865L23.3219 10.0886ZM25.906 9.90062C24.5323 7.96967 23.6131 5.43172 22.5411 2.59585C21.9317 2.15453 21.3244 2.4636 20.7171 2.77267C19.6554 3.68872 18.4387 3.55647 19.8103 4.73704C21.184 6.66799 22.4068 9.0514 23.1732 11.2914C23.4768 11.1369 24.0841 10.8278 24.2349 10.3754C24.8422 10.0663 25.1458 9.91176 25.906 9.90062ZM25.3214 18.4639C24.1048 18.3317 23.1918 18.0449 21.9751 17.9126C23.1918 18.0449 23.9519 18.0338 25.3214 18.4639C23.4954 17.8904 22.1259 17.4602 20.4527 17.1845C21.8222 17.6147 23.0389 17.747 24.8649 18.3205C22.8861 17.449 21.2129 17.1734 19.6905 16.4453C21.06 16.8755 22.4295 17.3056 24.4084 18.1771C22.7332 17.1511 20.9072 16.5775 19.0812 16.004C20.9072 16.5775 22.8861 17.449 25.3214 18.4639C25.7779 18.6073 25.7779 18.6073 25.3214 18.4639ZM24.7141 18.773C24.7141 18.773 24.4105 18.9275 24.2576 18.6296C21.9772 18.663 20.0004 18.5419 18.1764 18.7187C19.8496 18.9944 21.6735 18.8176 23.4975 18.6407C21.6735 18.8176 20.1532 18.8398 18.7858 19.16C20.3061 19.1378 22.13 18.9609 23.954 18.7841C22.4337 18.8064 21.0662 19.1266 19.6988 19.4468C21.5227 19.27 22.8902 18.9498 24.4105 18.9275C23.3467 19.0932 22.2829 19.2589 21.2191 19.4245C22.2829 19.2589 23.3467 19.0932 24.4105 18.9275C24.7141 18.773 24.7141 18.773 24.7141 18.773ZM25.6313 20.5606C25.024 20.8696 24.5695 21.4766 23.6586 21.9402C24.2659 21.6311 24.7203 21.0242 25.6313 20.5606C24.7203 21.0242 23.6586 21.9402 22.7477 22.4038C23.6586 21.9402 24.4167 21.1787 25.3276 20.7151C24.113 21.3332 22.8985 21.9514 21.8367 22.8674C22.5948 22.1059 23.8094 21.4878 25.024 20.8696C23.8094 21.4878 22.5948 22.1059 21.3802 22.724C22.5948 22.1059 23.9602 21.0353 25.4784 20.2626C25.7821 20.1081 25.9349 20.406 25.6313 20.5606ZM25.7841 20.8585C25.4805 21.013 25.4805 21.013 25.4805 21.013C24.268 22.3815 23.3591 23.5955 22.7539 24.655C23.3591 23.5955 24.268 22.3815 25.0261 21.62C24.4208 22.6795 23.6627 23.441 23.0575 24.5004C23.6627 23.441 24.5716 22.227 25.1768 21.1675C24.5716 22.227 24.27 23.1319 23.8156 23.7389C24.27 23.1319 24.8753 22.0725 25.4805 21.013C25.1789 21.9179 24.7245 22.5249 24.5737 22.9774C25.0281 22.3704 25.0261 21.62 25.4805 21.013L25.7841 20.8585ZM26.5422 20.097C26.8459 19.9424 26.8459 19.9424 27.1495 19.7879C27.3024 20.0858 27.3024 20.0858 27.7589 20.2292C29.2854 22.4581 30.3554 24.5436 31.1218 26.7836C31.4254 26.6291 32.0327 26.32 32.3363 26.1655C32.7908 25.5585 33.0944 25.4039 33.8546 25.3928C32.4809 23.4618 31.5617 20.9239 30.4897 18.088C29.8803 17.6467 29.273 17.9558 28.6657 18.2648C27.9076 19.0264 27.1475 19.0375 26.9967 19.49C26.8438 19.192 26.3873 19.0486 26.2344 18.7507C26.0816 18.4528 25.6251 18.3094 24.8629 17.5702C22.884 16.6987 19.6884 15.6949 18.0153 15.4193C18.4739 16.313 20.9092 17.3279 22.8881 18.1994C20.9113 18.0783 18.3272 18.2663 16.809 19.0389C18.3313 19.767 23.9561 19.5345 25.6272 19.0598C25.6272 19.0598 25.9308 18.9053 26.0837 19.2032C26.5402 19.3466 26.9967 19.49 27.1495 19.7879C26.8459 19.9424 26.5422 20.097 26.0857 19.9536C26.0857 19.9536 25.7821 20.1081 25.1748 20.4172C23.5037 20.8919 21.531 22.2716 20.4693 23.1876C21.3823 23.4744 23.2042 22.5472 24.5695 21.4766C23.6607 22.6906 22.601 24.357 21.9958 25.4165C23.3632 25.0963 25.7862 21.6089 25.9349 20.406C26.2386 20.2515 26.2386 20.2515 26.5422 20.097Z" fill="#468E0D"/>
<path d="M39.1743 12.2391L39.1782 12.2251L39.178 12.2106L39.0821 6.15258L39.0819 6.14258L39.0798 6.13282C39.0313 5.91061 39.1382 5.69604 39.374 5.5221C39.61 5.34807 39.9617 5.22753 40.3541 5.20456C41.1288 5.15921 42.0324 5.49436 42.4726 6.49825C42.2842 7.37437 42.1772 8.23827 42.0707 9.09719L42.0705 9.09934C41.9625 9.97054 41.8552 10.8366 41.6646 11.714L41.6554 11.7562L41.6798 11.7918C44.1412 15.3771 44.4114 19.285 43.1986 22.8178C41.9849 26.3533 39.2846 29.5151 35.8031 31.5944C32.3223 33.6733 28.0657 34.6672 23.7422 33.8738C19.4247 33.0815 15.0318 30.5054 11.2729 25.43C11.1338 24.8475 11.0779 24.3617 11.1079 23.9745C11.1381 23.5834 11.2551 23.3025 11.4522 23.1196C11.649 22.937 11.9411 22.838 12.3521 22.843C12.7632 22.848 13.2841 22.9573 13.9249 23.1815C24.4167 27.5384 36.0393 23.4704 39.1743 12.2391Z" fill="#FFEE2E" stroke="#468E0D" stroke-width="0.2"/>
</svg>
