<svg width="33" height="37" viewBox="0 0 33 37" fill="none" xmlns="http://www.w3.org/2000/svg">
<path fill-rule="evenodd" clip-rule="evenodd" d="M24.3976 31.6248C23.937 29.9806 22.5633 28.0496 21.4933 25.9642C22.4105 27.7517 23.3276 29.5393 24.3976 31.6248ZM26.9817 31.4368C25.4552 29.2079 24.536 26.67 23.6168 24.132C22.8546 23.3928 22.2473 23.7019 21.64 24.0109C20.5783 24.927 19.5145 25.0927 20.7332 25.9753C22.2597 28.2042 23.3297 30.2897 24.096 32.5297C24.3997 32.3751 25.007 32.0661 25.3106 31.9115C25.9179 31.6025 26.0687 31.15 26.9817 31.4368ZM20.4233 23.8787C19.9627 22.2345 18.589 20.3036 17.519 18.2181C18.4362 20.0056 19.3533 21.7932 20.4233 23.8787ZM16.2962 15.8347C15.9884 14.4884 14.4619 12.2595 13.5447 10.472C14.4619 12.2595 15.2262 13.7492 16.449 16.1326C16.449 16.1326 16.449 16.1326 16.2962 15.8347ZM18.8803 15.6467C17.5066 13.7158 16.5874 11.1778 15.5154 8.34194C14.906 7.90062 14.2987 8.20968 13.6914 8.51875C12.6297 9.43481 11.5659 9.60048 12.7846 10.4831C14.1582 12.4141 15.3811 14.7975 16.1475 17.0375C16.4511 16.883 17.0584 16.5739 17.362 16.4194C17.8165 15.8124 18.1201 15.6578 18.8803 15.6467ZM12.3219 8.08857C12.0141 6.74233 10.4876 4.51346 9.57045 2.7259C10.4876 4.51346 11.2519 6.00309 12.4747 8.3865L12.3219 8.08857ZM14.906 7.90062C13.5323 5.96967 12.6131 3.43172 11.5411 0.595853C10.9317 0.154533 10.3244 0.463599 9.71711 0.772666C8.65538 1.68872 7.43872 1.55647 8.8103 2.73704C10.184 4.66799 11.4068 7.0514 12.1732 9.29142C12.4768 9.13688 13.0841 8.82782 13.2349 8.37536C13.8422 8.06629 14.1458 7.91176 14.906 7.90062ZM14.3214 16.4639C13.1048 16.3317 12.1918 16.0449 10.9751 15.9126C12.1918 16.0449 12.9519 16.0338 14.3214 16.4639C12.4954 15.8904 11.1259 15.4602 9.45273 15.1845C10.8222 15.6147 12.0389 15.747 13.8649 16.3205C11.8861 15.449 10.2129 15.1734 8.69051 14.4453C10.06 14.8755 11.4295 15.3056 13.4084 16.1771C11.7332 15.1511 9.90717 14.5775 8.08115 14.004C9.90717 14.5775 11.8861 15.449 14.3214 16.4639C14.7779 16.6073 14.7779 16.6073 14.3214 16.4639ZM13.7141 16.773C13.7141 16.773 13.4105 16.9275 13.2576 16.6296C10.9772 16.663 9.00036 16.5419 7.17641 16.7187C8.84957 16.9944 10.6735 16.8176 12.4975 16.6407C10.6735 16.8176 9.15322 16.8398 7.78577 17.16C9.30608 17.1378 11.13 16.9609 12.954 16.7841C11.4337 16.8064 10.0662 17.1266 8.69878 17.4468C10.5227 17.27 11.8902 16.9498 13.4105 16.9275C12.3467 17.0932 11.2829 17.2589 10.2191 17.4245C11.2829 17.2589 12.3467 17.0932 13.4105 16.9275C13.7141 16.773 13.7141 16.773 13.7141 16.773ZM14.6313 18.5606C14.024 18.8696 13.5695 19.4766 12.6586 19.9402C13.2659 19.6311 13.7203 19.0242 14.6313 18.5606C13.7203 19.0242 12.6586 19.9402 11.7477 20.4038C12.6586 19.9402 13.4167 19.1787 14.3276 18.7151C13.113 19.3332 11.8985 19.9514 10.8367 20.8674C11.5948 20.1059 12.8094 19.4878 14.024 18.8696C12.8094 19.4878 11.5948 20.1059 10.3802 20.724C11.5948 20.1059 12.9602 19.0353 14.4784 18.2626C14.7821 18.1081 14.9349 18.406 14.6313 18.5606ZM14.7841 18.8585C14.4805 19.013 14.4805 19.013 14.4805 19.013C13.268 20.3815 12.3591 21.5955 11.7539 22.655C12.3591 21.5955 13.268 20.3815 14.0261 19.62C13.4208 20.6795 12.6627 21.441 12.0575 22.5004C12.6627 21.441 13.5716 20.227 14.1768 19.1675C13.5716 20.227 13.27 21.1319 12.8156 21.7389C13.27 21.1319 13.8753 20.0725 14.4805 19.013C14.1789 19.9179 13.7245 20.5249 13.5737 20.9774C14.0281 20.3704 14.0261 19.62 14.4805 19.013L14.7841 18.8585ZM15.5422 18.097C15.8459 17.9424 15.8459 17.9424 16.1495 17.7879C16.3024 18.0858 16.3024 18.0858 16.7589 18.2292C18.2854 20.4581 19.3554 22.5436 20.1218 24.7836C20.4254 24.6291 21.0327 24.32 21.3363 24.1655C21.7908 23.5585 22.0944 23.4039 22.8546 23.3928C21.4809 21.4618 20.5617 18.9239 19.4897 16.088C18.8803 15.6467 18.273 15.9558 17.6657 16.2648C16.9076 17.0264 16.1475 17.0375 15.9967 17.49C15.8438 17.192 15.3873 17.0486 15.2344 16.7507C15.0816 16.4528 14.6251 16.3094 13.8629 15.5702C11.884 14.6987 8.68845 13.6949 7.01528 13.4193C7.47385 14.313 9.90924 15.3279 11.8881 16.1994C9.91131 16.0783 7.3272 16.2663 5.80896 17.0389C7.33133 17.767 12.9561 17.5345 14.6272 17.0598C14.6272 17.0598 14.9308 16.9052 15.0837 17.2032C15.5402 17.3466 15.9967 17.49 16.1495 17.7879C15.8459 17.9424 15.5422 18.097 15.0857 17.9536C15.0857 17.9536 14.7821 18.1081 14.1748 18.4172C12.5037 18.8919 10.531 20.2716 9.46927 21.1876C10.3823 21.4744 12.2042 20.5472 13.5695 19.4766C12.6607 20.6906 11.601 22.357 10.9958 23.4165C12.3632 23.0963 14.7862 19.6089 14.9349 18.406C15.2386 18.2515 15.2386 18.2515 15.5422 18.097Z" fill="#468E0D"/>
<path d="M28.1743 10.2391L28.1782 10.2251L28.178 10.2106L28.0821 4.15258L28.0819 4.14258L28.0798 4.13282C28.0313 3.91061 28.1382 3.69604 28.374 3.5221C28.61 3.34807 28.9617 3.22753 29.3541 3.20456C30.1288 3.15921 31.0324 3.49436 31.4726 4.49825C31.2842 5.37437 31.1772 6.23827 31.0707 7.09719L31.0705 7.09934C30.9625 7.97054 30.8552 8.83663 30.6646 9.71396L30.6554 9.75618L30.6798 9.79179C33.1412 13.3771 33.4114 17.285 32.1986 20.8178C30.9849 24.3533 28.2846 27.5151 24.8031 29.5944C21.3223 31.6733 17.0657 32.6672 12.7422 31.8738C8.42473 31.0815 4.03183 28.5054 0.272911 23.43C0.133783 22.8475 0.0778791 22.3617 0.107862 21.9745C0.138149 21.5834 0.255102 21.3025 0.452161 21.1196C0.648968 20.937 0.941107 20.838 1.35208 20.843C1.76321 20.848 2.28406 20.9573 2.92488 21.1815C13.4167 25.5384 25.0393 21.4704 28.1743 10.2391Z" fill="#FFEE2E" stroke="#468E0D" stroke-width="0.2"/>
</svg>
